<svg width="135" height="40" viewBox="0 0 135 40" xmlns="http://www.w3.org/2000/svg">
  <g fill="none" fill-rule="evenodd">
    <rect fill="#000000" x="0" y="0" width="135" height="40" rx="5"/>
    <g transform="translate(8, 6)" fill="#FFFFFF">
      <path d="M24.76 20.3c0-4.4 3.5-6.5 3.7-6.7-2-2.9-5.1-3.3-6.2-3.3-2.6-.3-5.2 1.6-6.5 1.6-1.4 0-3.4-1.5-5.7-1.5-2.9 0-5.6 1.7-7.1 4.3-3.1 5.3-.8 13.1 2.2 17.4 1.5 2.1 3.2 4.5 5.5 4.4 2.2-.1 3-1.4 5.7-1.4 2.6 0 3.4 1.4 5.7 1.3 2.4-.1 3.9-2.1 5.3-4.3 1.7-2.5 2.4-5 2.4-5.1-.1 0-4.6-1.8-4.6-7.1l-.4-.1z"/>
      <path d="M22 7.1c1.2-1.5 2.1-3.6 1.8-5.7-1.8.1-4 1.2-5.3 2.7-1.2 1.3-2.2 3.5-1.9 5.5 2 .2 4.1-1 5.4-2.5z"/>
      <path d="M42.3 27.1h-4.7l-1.1 3.4h-2l4.5-12.4h2.1l4.5 12.4h-2l-1.3-3.4zm-4.2-1.5h3.8l-1.9-5.5-1.9 5.5z"/>
      <path d="M55.2 26.3c0 2.8-1.5 4.6-3.8 4.6-1.2 0-2.2-.5-2.7-1.4h0v4h-1.8v-11.4h1.7v1.3h0c.6-.9 1.6-1.5 2.8-1.5 2.3 0 3.8 1.8 3.8 4.4zm-1.8 0c0-1.8-.9-3-2.4-3s-2.5 1.2-2.5 3 1 3 2.5 3c1.5 0 2.4-1.2 2.4-3z"/>
      <path d="M65.1 26.3c0 2.8-1.5 4.6-3.8 4.6-1.2 0-2.2-.5-2.7-1.4h0v4h-1.8v-11.4h1.7v1.3h0c.6-.9 1.6-1.5 2.8-1.5 2.3 0 3.8 1.8 3.8 4.4zm-1.8 0c0-1.8-.9-3-2.4-3s-2.5 1.2-2.5 3 1 3 2.5 3c1.5 0 2.4-1.2 2.4-3z"/>
      <path d="M71.9 27.3c.1 1.1 1.2 1.8 2.6 1.8 1.3 0 2.4-.7 2.4-1.6 0-.8-.6-1.3-2-1.6l-1.4-.3c-2-.4-2.9-1.4-2.9-2.9 0-1.8 1.6-3.1 3.9-3.1s3.8 1.3 3.9 3.1h-1.8c-.1-1.1-1-1.8-2.1-1.8-1.2 0-2.1.7-2.1 1.6 0 .8.5 1.2 1.9 1.5l1.2.3c2.2.5 3.1 1.4 3.1 3 0 2-1.6 3.2-4.1 3.2-2.4 0-4-1.2-4.1-3.2h1.5z"/>
      <path d="M82.5 19.3v2.8h2.3v1.4h-2.3v4.4c0 1 .4 1.5 1.4 1.5.3 0 .6 0 .9-.1v1.4c-.4.1-.8.1-1.3.1-1.8 0-2.8-1-2.8-2.7v-4.6h-1.7v-1.4h1.7v-2.8h1.8z"/>
      <path d="M85.8 26.3c0-2.8 1.7-4.6 4.3-4.6s4.3 1.8 4.3 4.6-1.7 4.6-4.3 4.6-4.3-1.8-4.3-4.6zm6.8 0c0-1.9-1-3-2.5-3s-2.5 1.1-2.5 3 1 3 2.5 3 2.5-1.1 2.5-3z"/>
      <path d="M96.2 22.1v1.3h0c.5-.9 1.4-1.5 2.5-1.5.1 0 .3 0 .4.1v1.6c-.2-.1-.5-.1-.8-.1-1.3 0-2.3.9-2.3 2.2v4.8h-1.8v-8.4h1.8z"/>
      <path d="M107.4 28.7c-.2 1.4-1.6 2.4-3.4 2.4-2.3 0-3.7-1.7-3.7-4.5 0-2.8 1.4-4.7 3.6-4.7 2.2 0 3.6 1.8 3.6 4.4v.6h-5.4v.1c0 1.3.8 2.2 2 2.2 1 0 1.7-.4 1.9-1.2l1.4.7zm-5.2-2.3h3.6c0-1.2-.7-2-1.8-2s-1.8.8-1.8 2z"/>
      <path d="M42.6 8.7c0 1.7-1.3 2.8-3.4 2.8h-3.5V5.9h3.6c2 0 3.3 1.1 3.3 2.8zm-1.8 0c0-1-.8-1.6-2.1-1.6h-1.7v3.2h1.7c1.3 0 2.1-.6 2.1-1.6z"/>
      <path d="M44.2 9.6c0-1.6 1.2-2.6 3.3-2.6s3.3 1 3.3 2.6-1.2 2.6-3.3 2.6-3.3-1-3.3-2.6zm5.1 0c0-1-.4-1.5-1.8-1.5s-1.8.5-1.8 1.5.4 1.5 1.8 1.5 1.8-.5 1.8-1.5z"/>
      <path d="M56.8 11.5h-1.3l-1.4-4.9h1.5l.9 3.8h0l.9-3.8h1.5l-1.1 4.9z"/>
      <path d="M59.1 7.1v1h1.5v1h-1.5v2.4c0 .7.3 1 1 1 .2 0 .3 0 .5 0v1c-.2 0-.5.1-.8.1-1.3 0-1.9-.6-1.9-1.9V9.1h-1.1v-1h1.1v-1h1.2z"/>
      <path d="M61.5 5.9h1.2v2h0c.4-.6 1.1-1 1.9-1 1.4 0 2.3.9 2.3 2.4v3.2h-1.2V9.4c0-1-.4-1.5-1.3-1.5-.9 0-1.4.6-1.4 1.5v2.1h-1.2V5.9h-.3z"/>
      <path d="M75.6 10.4c-.1.8-1 1.4-2.1 1.4-1.4 0-2.3-1-2.3-2.6 0-1.6.9-2.6 2.3-2.6 1.4 0 2.2 1 2.2 2.5v.4h-3.4v.1c0 .8.5 1.3 1.2 1.3.6 0 1-.3 1.1-.7l1 .2zm-3.3-1.4h2.2c0-.7-.4-1.2-1.1-1.2-.7 0-1.1.5-1.1 1.2z"/>
      <path d="M81.8 8.5c0 1.6-1.2 2.6-3.1 2.6H76V5.9h2.7c1.9 0 3.1 1 3.1 2.6zm-1.3 0c0-1-.6-1.6-1.8-1.6h-1.4v3.2h1.4c1.2 0 1.8-.6 1.8-1.6z"/>
      <path d="M83.3 9.6c0-1.6 1.2-2.6 3.3-2.6s3.3 1 3.3 2.6-1.2 2.6-3.3 2.6-3.3-1-3.3-2.6zm5.1 0c0-1-.4-1.5-1.8-1.5s-1.8.5-1.8 1.5.4 1.5 1.8 1.5 1.8-.5 1.8-1.5z"/>
      <path d="M95.4 11.5h-1.2V7.1h1.1v.8h0c.4-.6 1.1-1 1.9-1 1.4 0 2.3.9 2.3 2.4v3.2h-1.2V9.4c0-1-.4-1.5-1.3-1.5-.9 0-1.4.6-1.4 1.5v2.1h-.2z"/>
      <path d="M104.9 7.1v1h1.5v1h-1.5v2.4c0 .7.3 1 1 1 .2 0 .3 0 .5 0v1c-.2 0-.5.1-.8.1-1.3 0-1.9-.6-1.9-1.9V9.1h-1.1v-1h1.1v-1h1.2z"/>
      <path d="M107.3 5.9h1.2v2h0c.4-.6 1.1-1 1.9-1 1.4 0 2.3.9 2.3 2.4v3.2h-1.2V9.4c0-1-.4-1.5-1.3-1.5-.9 0-1.4.6-1.4 1.5v2.1h-1.2V5.9h-.3z"/>
      <path d="M121.3 10.4c-.1.8-1 1.4-2.1 1.4-1.4 0-2.3-1-2.3-2.6 0-1.6.9-2.6 2.3-2.6 1.4 0 2.2 1 2.2 2.5v.4h-3.4v.1c0 .8.5 1.3 1.2 1.3.6 0 1-.3 1.1-.7l1 .2zm-3.3-1.4h2.2c0-.7-.4-1.2-1.1-1.2-.7 0-1.1.5-1.1 1.2z"/>
    </g>
  </g>
</svg>