<svg width="135" height="40" viewBox="0 0 135 40" xmlns="http://www.w3.org/2000/svg">
  <defs>
    <linearGradient x1="21.8%" y1="0%" x2="5.017%" y2="25.415%" id="a">
      <stop stop-color="#00A0FF" offset="0%"/>
      <stop stop-color="#00A1FF" offset="0.657%"/>
      <stop stop-color="#00BEFF" offset="26.01%"/>
      <stop stop-color="#00D2FF" offset="51.22%"/>
      <stop stop-color="#00DFFF" offset="76.04%"/>
      <stop stop-color="#00E3FF" offset="100%"/>
    </linearGradient>
    <linearGradient x1="7.725%" y1="4.064%" x2="53.555%" y2="75.678%" id="b">
      <stop stop-color="#FFE000" offset="0%"/>
      <stop stop-color="#FFBD00" offset="40.87%"/>
      <stop stop-color="#FFA500" offset="77.54%"/>
      <stop stop-color="#FF9C00" offset="100%"/>
    </linearGradient>
    <linearGradient x1="86.206%" y1="31.312%" x2="-131.714%" y2="111.273%" id="c">
      <stop stop-color="#FF3A44" offset="0%"/>
      <stop stop-color="#C31162" offset="100%"/>
    </linearGradient>
    <linearGradient x1="-18.754%" y1="-54.948%" x2="42.122%" y2="25.27%" id="d">
      <stop stop-color="#32A071" offset="0%"/>
      <stop stop-color="#2DA771" offset="6.85%"/>
      <stop stop-color="#15CF74" offset="47.62%"/>
      <stop stop-color="#06E775" offset="80.08%"/>
      <stop stop-color="#00F076" offset="100%"/>
    </linearGradient>
  </defs>
  <g fill="none" fill-rule="evenodd">
    <rect fill="#000000" x="0" y="0" width="135" height="40" rx="5"/>
    <g transform="translate(8, 6)">
      <path d="M58.813 13.5c0 .552-.447 1-.998 1-.552 0-1-.448-1-1 0-.551.448-1 1-1 .551 0 .998.449.998 1zm-1.816 0c0 .452.364.816.818.816.453 0 .817-.364.817-.816 0-.453-.364-.817-.817-.817-.454 0-.818.364-.818.817zm.408-.544h.45c.285 0 .459.185.459.44 0 .192-.118.305-.269.361l.306.526h-.188l-.278-.477h-.296v.477h-.184v-1.327zm.184.154v.541h.259c.173 0 .277-.088.277-.27 0-.182-.104-.27-.277-.27h-.259zM54.723 15.429c-.827 0-1.5-.647-1.5-1.543 0-.896.673-1.543 1.5-1.543.54 0 .871.214 1.138.481l-.32.321c-.214-.255-.507-.398-.818-.398-.661 0-1.179.534-1.179 1.139 0 .605.518 1.139 1.179 1.139.421 0 .66-.169.813-.323v-.65h-1.02v-.436h1.418v1.117c-.336.361-.781.696-1.411.696zm3.214-.057h-.32v-1.629h-1.112v1.629h-.32v-3.486h.32v1.421h1.112v-1.421h.32v3.486zm2.15-2.029v.436h-.99v.823h.896v.436h-.896v.898h.99v.436h-1.31v-3.029h1.31zm2.063 0v.436h-.674v2.593h-.32v-2.593h-.675v-.436h1.669zm1.894 3.029h-.32v-3.029h.32v3.029zm2.063 0h-.32v-1.278h-1.112v1.278h-.32v-3.029h.32v1.315h1.112v-1.315h.32v3.029zm2.725-1.514c0 .896-.673 1.514-1.493 1.514-.82 0-1.493-.618-1.493-1.514 0-.896.673-1.515 1.493-1.515.82 0 1.493.619 1.493 1.515zm-.327 0c0-.7-.45-1.186-1.166-1.186-.716 0-1.166.486-1.166 1.186 0 .7.45 1.186 1.166 1.186.716 0 1.166-.486 1.166-1.186zm2.506 1.514h-.32l-1.486-2.465v2.465h-.32v-3.029h.32l1.486 2.465v-2.465h.32v3.029z" fill="#FFFFFF"/>
      <path d="M67.494 8.43c0 .828-.233 1.493-.7 1.994-.52.555-1.182.834-1.988.834-.776 0-1.442-.277-1.999-.831-.557-.554-.831-1.22-.831-1.997s.274-1.443.831-1.997c.557-.554 1.223-.831 1.999-.831.393 0 .769.077 1.127.232.359.154.654.371.886.651l-.498.498c-.185-.233-.428-.415-.728-.548-.3-.132-.621-.199-.959-.199-.621 0-1.15.218-1.587.655-.437.437-.655.966-.655 1.587 0 .621.218 1.15.655 1.587.437.437.966.655 1.587.655.643 0 1.183-.218 1.620-.655.285-.285.448-.689.487-1.211h-2.107v-.665h2.793c.029.154.043.302.043.454l.064-.009zm2.711 2.994V4.89h2.793c.621 0 1.139.218 1.554.655.415.437.622.966.622 1.587 0 .621-.207 1.15-.622 1.587-.415.437-.933.655-1.554.655h-2.128v1.598h-.665zm.665-2.263h2.128c.393 0 .728-.139 1.004-.415.277-.277.415-.611.415-1.004 0-.393-.138-.728-.415-1.004-.276-.277-.611-.415-1.004-.415h-2.128v2.838zm6.27 2.263l-2.729-7.534h.71l2.062 5.826 2.062-5.826h.71l-2.729 7.534h-.086z" fill="#FFFFFF"/>
    </g>
    <g transform="translate(8, 6)">
      <path d="M10.204 7.239l-7.998 8.006c-.038-.085-.037-.085-.037-.133V1.888c0-.048-.001-.048.037-.133L10.204 7.239z" fill="url(#a)"/>
      <path d="m13.108 10.143-2.9-2.905 8.001-8.014c.48.025.869.26 1.167.665l-6.268 10.254z" fill="url(#b)"/>
      <path d="m13.108 10.143 6.268 10.254c-.298.405-.687.64-1.167.665l-8.001-8.014 2.9-2.905z" fill="url(#c)"/>
      <path d="M2.206 24.251c-.24 0-.446-.1-.619-.299L10.204 7.239l2.904 2.905-8.002 8.006c-.172.199-.379.299-.619.299-.121 0-.199-.024-.281-.098z" fill="url(#d)"/>
    </g>
  </g>
</svg>